<?xml version="1.0" encoding="utf-8"?>
<!-- Generator: Adobe Illustrator 27.2.0, SVG Export Plug-In . SVG Version: 6.00 Build 0)  -->
<svg version="1.1" id="Line_Gradient" xmlns="http://www.w3.org/2000/svg" xmlns:xlink="http://www.w3.org/1999/xlink" x="0px"
	 y="0px" viewBox="0 0 2500 2500" xml:space="preserve">
<g>
	<path d="M1950,1462.5h-412.5v-425H1950c20.70312,0,37.5-16.79688,37.5-37.5s-16.79688-37.5-37.5-37.5h-412.5V550
		c0-20.70312-16.79688-37.5-37.5-37.5s-37.5,16.79688-37.5,37.5v412.5h-425V550c0-20.70312-16.79688-37.5-37.5-37.5
		s-37.5,16.79688-37.5,37.5v412.5H550c-20.70312,0-37.5,16.79688-37.5,37.5s16.79688,37.5,37.5,37.5h412.5v425H550
		c-20.70312,0-37.5,16.79688-37.5,37.5s16.79688,37.5,37.5,37.5h412.5V1950c0,20.70312,16.79688,37.5,37.5,37.5
		s37.5-16.79688,37.5-37.5v-412.5h425V1950c0,20.70312,16.79688,37.5,37.5,37.5s37.5-16.79688,37.5-37.5v-412.5H1950
		c20.70312,0,37.5-16.79688,37.5-37.5S1970.70312,1462.5,1950,1462.5z M1037.5,1462.5v-425h425v425H1037.5z"/>
	<path d="M623.49158,876.51892c14.70221,14.69617,38.30365,14.71246,53.02209-0.00525
		C676.51544,876.5119,750,803.02734,750,803.02734s73.42993,73.42993,73.48627,73.48627
		c14.59894,14.59894,38.43042,14.59705,53.0274,0.00006c14.64844-14.64844,14.64844-38.37891,0-53.02734L803.02734,750
		l73.48633-73.48633c14.64844-14.64844,14.64844-38.37891,0-53.02734s-38.37891-14.64844-53.02734,0L750,696.97266
		l-73.48633-73.48633c-14.64844-14.64844-38.37891-14.64844-53.02734,0s-14.64844,38.37891,0,53.02734L696.97266,750
		l-73.48633,73.48633C608.83789,838.13477,608.83789,861.86523,623.49158,876.51892z"/>
	<path d="M1123.48633,876.51367c13.56775,13.56573,38.33887,14.68811,53.02734,0L1250,803.02734
		c0,0,73.28894,73.28894,73.48596,73.4859c14.62073,14.62079,38.51501,14.51312,53.02771,0.00043
		c14.64844-14.64844,14.64844-38.37891,0-53.02734L1303.02734,750l73.48633-73.48633
		c14.64844-14.64844,14.64844-38.37891,0-53.02734s-38.37891-14.64844-53.02734,0L1250,696.97266l-73.48633-73.48633
		c-14.64844-14.64844-38.37891-14.64844-53.02734,0s-14.64844,38.37891,0,53.02734L1196.97266,750l-73.48633,73.48633
		C1108.84192,838.13068,1108.83789,861.85199,1123.48633,876.51367z"/>
	<path d="M1303.02734,1250l73.48633-73.48633c14.64844-14.64844,14.64844-38.37891,0-53.02734s-38.37891-14.64844-53.02734,0
		L1250,1196.97266l-73.48633-73.48633c-14.64844-14.64844-38.37891-14.64844-53.02734,0s-14.64844,38.37891,0,53.02734
		L1196.97266,1250l-73.48633,73.48633c-14.64844,14.64844-14.64844,38.37891,0,53.02734
		c7.32422,7.32422,16.89453,10.98633,26.51367,10.98633s19.18945-3.66211,26.51367-10.98633L1250,1303.02734l73.48633,73.48633
		c7.32422,7.32422,16.89453,10.98633,26.51367,10.98633s19.18945-3.66211,26.51367-10.98633
		c14.64844-14.64844,14.64844-38.37891,0-53.02734L1303.02734,1250z"/>
	<path d="M1876.51367,1623.48633c-14.64844-14.64844-38.37891-14.64844-53.02734,0L1750,1696.97266l-73.48633-73.48633
		c-14.64844-14.64844-38.37891-14.64844-53.02734,0s-14.64844,38.37891,0,53.02734L1696.97266,1750l-73.48633,73.48633
		c-14.64783,14.64783-14.64844,38.37708-0.00171,53.02563c13.80957,13.81128,38.08374,14.94702,53.02905,0.00171L1750,1803.02734
		c0,0,73.31604,73.31604,73.48608,73.48608c14.52429,14.52429,38.60046,14.42737,53.02759,0.00024
		c14.64844-14.64844,14.64844-38.37891,0-53.02734L1803.02734,1750l73.48633-73.48633
		C1891.16211,1661.86523,1891.16211,1638.13477,1876.51367,1623.48633z"/>
	<path d="M876.51367,1623.48633c-14.64844-14.64844-38.37891-14.64844-53.02734,0L750,1696.97266l-73.48633-73.48633
		c-14.64844-14.64844-38.37891-14.64844-53.02734,0s-14.64844,38.37891,0,53.02734L696.97266,1750l-73.48633,73.48633
		c-14.64612,14.64612-14.64844,38.37146-0.00696,53.02039c13.68341,13.69043,38.2677,14.77344,53.0343,0.00696L750,1803.02734
		c0,0,73.42993,73.42993,73.48627,73.48633c14.59894,14.59888,38.43042,14.59692,53.0274,0
		c14.64844-14.64844,14.64844-38.37891,0-53.02734L803.02734,1750l73.48633-73.48633
		C891.16211,1661.86523,891.16211,1638.13477,876.51367,1623.48633z"/>
	<path d="M1750,912.5c89.59961,0,162.5-72.90039,162.5-162.5s-72.90039-162.5-162.5-162.5s-162.5,72.90039-162.5,162.5
		S1660.40039,912.5,1750,912.5z M1750,662.5c48.24219,0,87.5,39.25781,87.5,87.5s-39.25781,87.5-87.5,87.5s-87.5-39.25781-87.5-87.5
		S1701.75781,662.5,1750,662.5z"/>
	<path d="M1587.5,1250c0,89.59961,72.90039,162.5,162.5,162.5s162.5-72.90039,162.5-162.5s-72.90039-162.5-162.5-162.5
		S1587.5,1160.40039,1587.5,1250z M1837.5,1250c0,48.24219-39.25781,87.5-87.5,87.5s-87.5-39.25781-87.5-87.5
		s39.25781-87.5,87.5-87.5S1837.5,1201.75781,1837.5,1250z"/>
	<path d="M1250,1587.5c-89.59961,0-162.5,72.90039-162.5,162.5s72.90039,162.5,162.5,162.5s162.5-72.90039,162.5-162.5
		S1339.59961,1587.5,1250,1587.5z M1250,1837.5c-48.24219,0-87.5-39.25781-87.5-87.5s39.25781-87.5,87.5-87.5
		s87.5,39.25781,87.5,87.5S1298.24219,1837.5,1250,1837.5z"/>
	<path d="M912.5,1250c0-89.59961-72.90039-162.5-162.5-162.5s-162.5,72.90039-162.5,162.5s72.90039,162.5,162.5,162.5
		S912.5,1339.59961,912.5,1250z M662.5,1250c0-48.24219,39.25781-87.5,87.5-87.5s87.5,39.25781,87.5,87.5s-39.25781,87.5-87.5,87.5
		S662.5,1298.24219,662.5,1250z"/>
</g>
</svg>
